<?xml version="1.0" encoding="UTF-8"?>
<!DOCTYPE svg PUBLIC "-//W3C//DTD SVG 1.1//EN" "http://www.w3.org/Graphics/SVG/1.1/DTD/svg11.dtd">
<!-- Creator: CorelDRAW 2018 (64-Bit Evaluation Version) -->
<svg xmlns="http://www.w3.org/2000/svg" xml:space="preserve" width="64px" height="64px" version="1.1" style="shape-rendering:geometricPrecision; text-rendering:geometricPrecision; image-rendering:optimizeQuality; fill-rule:evenodd; clip-rule:evenodd"
viewBox="0 0 64 64"
 xmlns:xlink="http://www.w3.org/1999/xlink">
 <defs>
  <style type="text/css">
   <![CDATA[
    .fil0 {fill:none}
    .fil5 {fill:#4DD7DD}
    .fil9 {fill:#606063}
    .fil6 {fill:#612F01}
    .fil10 {fill:#823C01}
    .fil14 {fill:#9E7200}
    .fil11 {fill:#BEBEBE}
    .fil7 {fill:#D1884F}
    .fil13 {fill:#F0B90B}
    .fil8 {fill:#F5F3F3}
    .fil12 {fill:#FEDC90}
    .fil4 {fill:url(#id1)}
    .fil2 {fill:url(#id2)}
    .fil1 {fill:url(#id3)}
    .fil3 {fill:url(#id4)}
   ]]>
  </style>
       <clipPath id="id0">
        <rect x="22.147" y="22.147" width="19.706" height="19.706"/>
       </clipPath>
  <linearGradient id="id1" gradientUnits="userSpaceOnUse" x1="51.593" y1="17.496" x2="42.905" y2="53.26">
   <stop offset="0" style="stop-opacity:1; stop-color:#FE6E98"/>
   <stop offset="1" style="stop-opacity:1; stop-color:#FE8366"/>
  </linearGradient>
  <linearGradient id="id2" gradientUnits="userSpaceOnUse" xlink:href="#id1" x1="51.593" y1="17.496" x2="42.905" y2="53.26">
  </linearGradient>
  <linearGradient id="id3" gradientUnits="userSpaceOnUse" xlink:href="#id1" x1="16.858" y1="53.81" x2="30.744" y2="9.045">
  </linearGradient>
  <linearGradient id="id4" gradientUnits="userSpaceOnUse" xlink:href="#id1" x1="16.858" y1="53.81" x2="30.744" y2="9.045">
  </linearGradient>
 </defs>
 <g id="Layer_x0020_1">
  <metadata id="CorelCorpID_0Corel-Layer"/>
  <g id="_2582843741728">
   <rect class="fil0" x="-0.001" y="-0.001" width="64.002" height="64.002"/>
   <g>
    <g>
     <path class="fil1" d="M32.176 55.723l-8.104 0 -0.053 0c-6.522,0 -12.448,-2.666 -16.741,-6.959 -4.294,-4.294 -6.959,-10.22 -6.959,-16.741 0,-6.522 2.665,-12.449 6.959,-16.742 4.293,-4.294 10.219,-6.959 16.741,-6.959l0.053 0 3.513 0 -0.056 -3.258 9.34 7.416 -9.09 7.217 -0.055 -3.202 -3.652 0 -0.053 0c-4.265,0 -8.146,1.748 -10.963,4.564 -2.816,2.816 -4.564,6.698 -4.564,10.963 0,4.266 1.748,8.147 4.564,10.964 2.817,2.816 6.698,4.564 10.963,4.564l0.053 0 7.81 0 -4.999 3.97 5.293 4.203z"/>
     <path class="fil2" d="M39.928 16.495l-7.111 0 5.055 -4.015 -5.237 -4.158 7.293 0 0.053 0c6.522,0 12.448,2.665 16.741,6.959 4.294,4.293 6.959,10.22 6.959,16.742 0,6.521 -2.665,12.447 -6.959,16.741 -4.293,4.293 -10.219,6.959 -16.741,6.959l-0.053 0 -2.757 0 0.054 3.213 -9.338 -7.416 9.089 -7.217 0.056 3.247 2.896 0 0.053 0c4.265,0 8.146,-1.748 10.963,-4.564 2.816,-2.817 4.564,-6.698 4.564,-10.964 0,-4.265 -1.748,-8.147 -4.564,-10.963 -2.817,-2.816 -6.698,-4.564 -10.963,-4.564l-0.053 0z"/>
    </g>
    <g>
     <g id="token-cake">
      <g style="clip-path:url(#id0)">
       <image id="icon-round-512" x="22.147" y="22.148" width="19.705" height="19.705" xlink:href="CROX-CAKE-64x64_Images\CROX-CAKE-64x64_ImgID1.png"/>
      </g>
     </g>
    </g>
   </g>
  </g>
  <g id="_2617480447504">
   <rect class="fil0" x="-0.001" y="-0.001" width="64.002" height="64.002"/>
   <path class="fil3" d="M32.176 55.723l-8.104 0 -0.053 0c-6.522,0 -12.448,-2.666 -16.741,-6.959 -4.294,-4.294 -6.959,-10.22 -6.959,-16.741 0,-6.522 2.665,-12.449 6.959,-16.742 4.293,-4.294 10.219,-6.959 16.741,-6.959l0.053 0 3.513 0 -0.056 -3.258 9.34 7.416 -9.09 7.217 -0.055 -3.202 -3.652 0 -0.053 0c-4.265,0 -8.146,1.748 -10.963,4.564 -2.816,2.816 -4.564,6.698 -4.564,10.963 0,4.266 1.748,8.147 4.564,10.964 2.817,2.816 6.698,4.564 10.963,4.564l0.053 0 7.81 0 -4.999 3.97 5.293 4.203z"/>
   <path class="fil4" d="M39.928 16.495l-7.111 0 5.055 -4.015 -5.237 -4.158 7.293 0 0.053 0c6.522,0 12.448,2.665 16.741,6.959 4.294,4.293 6.959,10.22 6.959,16.742 0,6.521 -2.665,12.447 -6.959,16.741 -4.293,4.293 -10.219,6.959 -16.741,6.959l-0.053 0 -2.757 0 0.054 3.213 -9.338 -7.416 9.089 -7.217 0.056 3.247 2.896 0 0.053 0c4.265,0 8.146,-1.748 10.963,-4.564 2.816,-2.817 4.564,-6.698 4.564,-10.964 0,-4.265 -1.748,-8.147 -4.564,-10.963 -2.817,-2.816 -6.698,-4.564 -10.963,-4.564l-0.053 0z"/>
   <g>
    <rect class="fil5" x="22.147" y="22.147" width="19.705" height="19.705" rx="9.853" ry="9.853"/>
    <g>
     <path class="fil6" d="M33.415 34.863c0.858,-0.025 1.514,-0.315 2.157,-0.458 -0.21,0.454 -1.546,1.074 -2.083,1.226 -1.767,0.5 -3.882,0.392 -5.465,-0.528 -0.59,-0.343 -1.445,-1.13 -1.428,-1.86 -0.168,-0.231 -0.038,-1.453 0.107,-1.688 0.126,0.076 0.221,0.208 0.343,0.314 0.285,0.246 0.596,0.397 0.7,0.611 0.214,0.435 -0.146,1.009 0.419,1.478 0.404,0.336 0.755,0.166 1,0.089 0.188,-0.06 0.281,0.066 0.463,0.149 0.495,0.223 0.85,0.353 1.412,0.481 0.901,0.204 1.459,0.153 2.375,0.186zm-2.767 -1.597c1.752,0.024 2.983,-0.082 4.322,-0.87 0.544,-0.32 1.047,-0.757 1.365,-1.267 0.504,-0.808 0.316,-1.202 0.391,-2.194 0.652,0.464 0.94,1.189 0.924,2.033 -0.041,0.563 0.019,0.855 -0.23,1.326 -0.917,1.732 -3.655,2.208 -5.492,2.001 -0.993,-0.112 -1.538,-0.352 -2.323,-0.695l0.051 -0.481 0.992 0.147zm-2.059 -5.069c0.061,-0.426 0.205,-0.619 0.509,-0.786 0.581,-0.319 1.462,-0.313 1.999,0.056 0.295,0.203 0.398,0.352 0.407,0.823 0.063,1.257 -1.747,1.364 -2.522,0.83 -0.351,-0.242 -0.37,-0.416 -0.393,-0.923zm-0.155 2.243c-1.005,-0.663 -0.871,-1.784 -0.27,-2.135 -0.006,0.723 0.24,1.008 0.675,1.269 0.417,0.25 0.995,0.379 1.595,0.291 0.792,-0.116 1.496,-0.569 1.515,-1.366 0.003,-0.143 0.001,-0.322 -0.008,-0.464 -0.009,-0.165 -0.052,-0.226 -0.081,-0.4 0.502,0.09 1.124,0.481 1.403,0.881 0.384,0.551 0.246,1.232 -0.139,1.607 -0.201,0.196 -0.346,0.329 -0.635,0.485 -0.251,0.135 -0.517,0.231 -0.821,0.305 -0.756,0.184 -1.257,0.123 -2.019,0.033 -0.106,0.199 -0.236,0.412 -0.35,0.611 -0.157,0.275 -0.103,0.433 -0.101,0.808 0.003,0.469 0.159,1.537 -0.593,1.325 -0.469,-0.132 -0.334,-0.901 -0.33,-1.596 0.008,-1.085 -0.029,-0.577 0.421,-1.47 -0.07,-0.083 -0.158,-0.115 -0.262,-0.184zm-0.564 0.699c-0.071,0.222 -0.05,0.403 -0.05,0.648 -0.404,-0.168 -1.233,-1.053 -1.227,-1.71 -0.144,-0.226 -0.046,-0.75 -0.034,-1.039 0.034,-0.878 0.55,-1.451 1.205,-1.916 2.668,-1.899 8.619,-1.025 8.431,2.277 -0.033,0.483 0.033,0.68 -0.147,1.135 -0.246,0.623 -0.682,0.983 -1.22,1.333 -1.343,0.873 -3.622,1.116 -5.182,0.696 0,-0.177 -0.044,-0.606 0.039,-0.724l0.175 -0.381c1.002,0.014 1.43,0.086 2.357,-0.232 2.57,-0.883 2.243,-3.599 -0.668,-4.129 -0.475,-0.087 -0.673,-0.396 -1.56,-0.377 -0.772,0.016 -1.3,0.282 -1.705,0.844 -0.149,0.209 -0.945,0.586 -1.039,1.514 -0.096,0.94 0.512,1.332 0.839,1.704 -0.079,0.12 -0.139,0.262 -0.214,0.357zm-1.644 -0.308c0.205,0.203 0.082,0.262 -0.019,0.497 -0.058,0.135 -0.117,0.518 -0.163,0.592 -0.043,0.898 -0.072,1.578 0.321,2.29 0.934,1.692 3.552,2.367 5.577,2.228 1.46,-0.101 3.219,-0.663 4.116,-1.757 0.26,-0.317 0.433,-0.716 0.521,-0.794 0.101,-0.088 0.28,-0.19 0.386,-0.271 0.308,-0.24 1.024,-0.972 1.089,-1.536 0.197,-0.408 0.06,-1.152 0.086,-1.641l-0.022 -0.293c-0.316,-1.173 -0.901,-1.475 -1.516,-1.958 -0.194,-0.152 -0.159,-0.468 -0.895,-1.154 -1.984,-1.851 -6.268,-1.886 -8.388,-0.242 -1.18,0.915 -1.285,1.576 -1.288,2.865 -0.002,0.841 0.152,0.82 0.195,1.174z"/>
     <path class="fil7" d="M26.593 30.077l-0.012 -0.582c0.073,0.107 0.066,0.155 0.117,0.284 0.346,0.868 1.069,1.165 1.172,1.36 0.075,-0.095 0.135,-0.237 0.214,-0.357 -0.327,-0.372 -0.935,-0.764 -0.839,-1.704 0.094,-0.928 0.89,-1.305 1.039,-1.514 0.405,-0.562 0.933,-0.828 1.705,-0.844 0.887,-0.019 1.085,0.29 1.56,0.377 2.911,0.53 3.238,3.246 0.668,4.129 -0.927,0.318 -1.355,0.246 -2.357,0.232l-0.175 0.381c0.763,0.048 0.902,0.228 2.122,0.161 0.682,-0.038 1.337,-0.166 1.937,-0.367 0.566,-0.19 1.138,-0.495 1.503,-0.818 0.889,-0.788 0.77,-1.215 0.948,-1.416 0.188,-3.302 -5.763,-4.176 -8.431,-2.277 -0.655,0.465 -1.171,1.038 -1.205,1.916 -0.012,0.289 -0.11,0.813 0.034,1.039z"/>
     <path class="fil8" d="M25.564 33.695c0.084,0.1 0.102,0.329 0.152,0.47 0.153,0.433 0.43,0.818 0.723,1.131 2.382,2.539 8.552,2.598 11.066,0.058 0.322,-0.325 0.568,-0.646 0.75,-1.104l0.111 -0.354c0.003,-0.009 0.021,-0.061 0.021,-0.062 0.051,-0.129 0.008,-0.036 0.044,-0.09 -0.02,-0.35 0.027,-0.587 -0.058,-0.946 -0.048,-0.205 -0.148,-0.575 -0.319,-0.718 -0.065,0.564 -0.781,1.296 -1.089,1.536 -0.106,0.081 -0.285,0.183 -0.386,0.271 -0.088,0.078 -0.261,0.477 -0.521,0.794 -0.897,1.094 -2.656,1.656 -4.116,1.757 -2.025,0.139 -4.643,-0.536 -5.577,-2.228 -0.393,-0.712 -0.364,-1.392 -0.321,-2.29 -0.057,-0.063 -0.028,-0.037 -0.107,0.099 -0.391,0.678 -0.325,1.001 -0.373,1.676z"/>
     <path class="fil9" d="M38.054 32.08c0.171,0.143 0.271,0.513 0.319,0.718 0.085,0.359 0.038,0.596 0.058,0.946 0.162,3.851 -7.03,5.271 -10.763,3.107 -1.012,-0.586 -2.167,-1.48 -2.104,-3.156 0.048,-0.675 -0.018,-0.998 0.373,-1.676 0.079,-0.136 0.05,-0.162 0.107,-0.099 0.046,-0.074 0.105,-0.457 0.163,-0.592 0.101,-0.235 0.224,-0.294 0.019,-0.497 -0.15,0.171 -0.243,0.245 -0.375,0.412 -0.128,0.162 -0.214,0.273 -0.326,0.448 -0.219,0.343 -0.358,0.685 -0.442,1.127 -0.279,2.189 0.553,3.574 2.452,4.556 1.685,0.871 3.789,1.215 5.946,0.925 2.099,-0.283 3.811,-1.156 4.751,-2.334 0.624,-0.783 0.786,-1.525 0.726,-2.787 -0.025,-0.519 -0.184,-0.983 -0.407,-1.369 -0.079,-0.137 -0.321,-0.463 -0.348,-0.542 -0.082,-0.243 0.059,-0.628 -0.063,-0.828 -0.026,0.489 0.111,1.233 -0.086,1.641z"/>
     <path class="fil10" d="M28.164 28.305c-0.601,0.351 -0.735,1.472 0.27,2.135 0.104,0.069 0.192,0.101 0.262,0.184 -0.45,0.893 -0.413,0.385 -0.421,1.47 -0.004,0.695 -0.139,1.464 0.33,1.596 0.752,0.212 0.596,-0.856 0.593,-1.325 -0.002,-0.375 -0.056,-0.533 0.101,-0.808 0.114,-0.199 0.244,-0.412 0.35,-0.611 0.762,0.09 1.263,0.151 2.019,-0.033 0.304,-0.074 0.57,-0.17 0.821,-0.305 0.289,-0.156 0.434,-0.289 0.635,-0.485 0.385,-0.375 0.523,-1.056 0.139,-1.607 -0.279,-0.4 -0.901,-0.791 -1.403,-0.881 0.029,0.174 0.072,0.235 0.081,0.4 0.009,0.142 0.011,0.321 0.008,0.464 -0.019,0.797 -0.723,1.25 -1.515,1.366 -0.6,0.088 -1.178,-0.041 -1.595,-0.291 -0.435,-0.261 -0.681,-0.546 -0.675,-1.269z"/>
     <path class="fil11" d="M38.431 33.744c-0.036,0.054 0.007,-0.039 -0.044,0.09 0,0.001 -0.018,0.053 -0.021,0.062l-0.111 0.354c-0.182,0.458 -0.428,0.779 -0.75,1.104 -2.514,2.54 -8.684,2.481 -11.066,-0.058 -0.293,-0.313 -0.57,-0.698 -0.723,-1.131 -0.05,-0.141 -0.068,-0.37 -0.152,-0.47 -0.063,1.676 1.092,2.57 2.104,3.156 3.733,2.164 10.925,0.744 10.763,-3.107z"/>
     <path class="fil7" d="M30.648 33.266c0.428,0.221 1.752,0.33 2.165,0.331 1.651,0.005 3.883,-0.572 4.649,-2.153 0.078,-0.158 0.109,-0.346 0.188,-0.476 0.016,-0.844 -0.272,-1.569 -0.924,-2.033 -0.075,0.992 0.113,1.386 -0.391,2.194 -0.318,0.51 -0.821,0.947 -1.365,1.267 -1.339,0.788 -2.57,0.894 -4.322,0.87z"/>
     <path class="fil12" d="M26.596 33.243c-0.017,0.73 0.838,1.517 1.428,1.86 1.583,0.92 3.698,1.028 5.465,0.528 0.537,-0.152 1.873,-0.772 2.083,-1.226 -0.643,0.143 -1.299,0.433 -2.157,0.458l-0.242 0.106c-0.089,0.021 -0.168,0.037 -0.252,0.055 -1.193,0.247 -2.582,0.201 -3.726,-0.163 -0.615,-0.196 -1.176,-0.461 -1.598,-0.799 -0.656,-0.526 -0.704,-0.705 -0.972,-1.314 -0.038,-0.085 -0.016,-0.042 -0.057,-0.083l0.028 0.578z"/>
     <path class="fil12" d="M30.648 33.266l-0.992 -0.147 -0.051 0.481c0.785,0.343 1.33,0.583 2.323,0.695 1.837,0.207 4.575,-0.269 5.492,-2.001 0.249,-0.471 0.189,-0.763 0.23,-1.326 -0.079,0.13 -0.11,0.318 -0.188,0.476 -0.766,1.581 -2.998,2.158 -4.649,2.153 -0.413,-0.001 -1.737,-0.11 -2.165,-0.331z"/>
     <path class="fil12" d="M29.685 31.839c-0.083,0.118 -0.039,0.547 -0.039,0.724 1.56,0.42 3.839,0.177 5.182,-0.696 0.538,-0.35 0.974,-0.71 1.22,-1.333 0.18,-0.455 0.114,-0.652 0.147,-1.135 -0.178,0.201 -0.059,0.628 -0.948,1.416 -0.365,0.323 -0.937,0.628 -1.503,0.818 -0.6,0.201 -1.255,0.329 -1.937,0.367 -1.22,0.067 -1.359,-0.113 -2.122,-0.161z"/>
     <path class="fil7" d="M26.596 33.243l-0.028 -0.578c0.041,0.041 0.019,-0.002 0.057,0.083 0.268,0.609 0.316,0.788 0.972,1.314 0.422,0.338 0.983,0.603 1.598,0.799 1.144,0.364 2.533,0.41 3.726,0.163 0.084,-0.018 0.163,-0.034 0.252,-0.055l0.242 -0.106c-0.916,-0.033 -1.474,0.018 -2.375,-0.186 -0.562,-0.128 -0.917,-0.258 -1.412,-0.481 -0.182,-0.083 -0.275,-0.209 -0.463,-0.149 -0.245,0.077 -0.596,0.247 -1,-0.089 -0.565,-0.469 -0.205,-1.043 -0.419,-1.478 -0.104,-0.214 -0.415,-0.365 -0.7,-0.611 -0.122,-0.106 -0.217,-0.238 -0.343,-0.314 -0.145,0.235 -0.275,1.457 -0.107,1.688z"/>
     <path class="fil13" d="M29.446 28.111c0.047,-0.158 0.114,-0.151 0.261,-0.245 0.297,-0.189 0.316,-0.254 0.669,-0.024 0.359,0.235 0.403,0.256 0.035,0.496 -0.361,0.236 -0.339,0.227 -0.697,0.01 -0.18,-0.11 -0.159,-0.069 -0.268,-0.237zm-0.857 0.086c0.109,0.153 0.082,0.368 0.518,0.604 0.532,0.289 1.266,0.3 1.811,0.045 0.244,-0.115 0.371,-0.233 0.515,-0.454l0.071 -0.102c-0.009,-0.471 -0.112,-0.62 -0.407,-0.823 -0.537,-0.369 -1.418,-0.375 -1.999,-0.056 -0.304,0.167 -0.448,0.36 -0.509,0.786z"/>
     <path class="fil14" d="M31.504 28.29l-0.071 0.102c-0.144,0.221 -0.271,0.339 -0.515,0.454 -0.545,0.255 -1.279,0.244 -1.811,-0.045 -0.436,-0.236 -0.409,-0.451 -0.518,-0.604 0.023,0.507 0.042,0.681 0.393,0.923 0.775,0.534 2.585,0.427 2.522,-0.83z"/>
     <path class="fil12" d="M26.593 30.077c-0.006,0.657 0.823,1.542 1.227,1.71 0,-0.245 -0.021,-0.426 0.05,-0.648 -0.103,-0.195 -0.826,-0.492 -1.172,-1.36 -0.051,-0.129 -0.044,-0.177 -0.117,-0.284l0.012 0.582z"/>
     <path class="fil14" d="M29.446 28.111c0.109,0.168 0.088,0.127 0.268,0.237 0.358,0.217 0.336,0.226 0.697,-0.01 0.368,-0.24 0.324,-0.261 -0.035,-0.496 -0.353,-0.23 -0.372,-0.165 -0.669,0.024 -0.147,0.094 -0.214,0.087 -0.261,0.245z"/>
    </g>
   </g>
  </g>
 </g>
</svg>
