<svg width="64" height="64" viewBox="0 0 64 64" fill="none" xmlns="http://www.w3.org/2000/svg">
<path fill-rule="evenodd" clip-rule="evenodd" d="M17.4554 0H7.75788V6.39887H17.4554V15.9995H7.75788V28.7995V41.5995H3.87991H0V57.5991H3.87991V47.9986H7.75788V57.5991H13.5761V64H17.4554V47.9986H21.3333H25.2126V57.5991H21.3333V64H25.2126V57.5991H38.7887V64H42.6668V57.5991H38.7887V47.9986H42.6668H46.5446V64H50.4244V57.5991H56.2429V47.9986H60.1207V57.5991H64V41.5995H60.1207H56.2429V28.7995V15.9995H46.5446V6.39887H56.2429V0H46.5446V6.39887H42.6668V15.9995H38.7887V22.3983H25.2126V15.9995H21.3333V6.39887H17.4554L17.4554 0ZM42.6548 28.8036V35.2027H46.5327V28.8036H42.6548ZM21.3303 28.8036H17.4524V35.2027H21.3303V28.8036Z" fill="#DE00BB"/>
</svg>
