<?xml version="1.0" encoding="UTF-8"?>
<!DOCTYPE svg PUBLIC "-//W3C//DTD SVG 1.1//EN" "http://www.w3.org/Graphics/SVG/1.1/DTD/svg11.dtd">
<!-- Creator: CorelDRAW 2018 (64-Bit Evaluation Version) -->
<svg xmlns="http://www.w3.org/2000/svg" xml:space="preserve" width="64px" height="64px" version="1.1" style="shape-rendering:geometricPrecision; text-rendering:geometricPrecision; image-rendering:optimizeQuality; fill-rule:evenodd; clip-rule:evenodd"
viewBox="0 0 64 64"
 xmlns:xlink="http://www.w3.org/1999/xlink">
 <defs>
  <style type="text/css">
   <![CDATA[
    .fil0 {fill:none}
    .fil3 {fill:#EFB80A}
    .fil4 {fill:white}
    .fil1 {fill:url(#id0)}
    .fil2 {fill:url(#id1)}
   ]]>
  </style>
  <linearGradient id="id0" gradientUnits="userSpaceOnUse" x1="16.858" y1="53.81" x2="30.744" y2="9.045">
   <stop offset="0" style="stop-opacity:1; stop-color:#FE6E98"/>
   <stop offset="1" style="stop-opacity:1; stop-color:#FE8366"/>
  </linearGradient>
  <linearGradient id="id1" gradientUnits="userSpaceOnUse" xlink:href="#id0" x1="51.593" y1="17.496" x2="42.905" y2="53.26">
  </linearGradient>
 </defs>
 <g id="Layer_x0020_1">
  <metadata id="CorelCorpID_0Corel-Layer"/>
  <g id="_2168579025056">
   <rect class="fil0" x="-0.001" y="-0.001" width="64.002" height="64.002"/>
   <g>
    <g>
     <path class="fil1" d="M32.176 55.723l-8.104 0 -0.053 0c-6.522,0 -12.448,-2.666 -16.741,-6.959 -4.294,-4.294 -6.959,-10.22 -6.959,-16.741 0,-6.522 2.665,-12.449 6.959,-16.742 4.293,-4.294 10.219,-6.959 16.741,-6.959l0.053 0 3.513 0 -0.056 -3.258 9.34 7.416 -9.09 7.217 -0.055 -3.202 -3.652 0 -0.053 0c-4.265,0 -8.146,1.748 -10.963,4.564 -2.816,2.816 -4.564,6.698 -4.564,10.963 0,4.266 1.748,8.147 4.564,10.964 2.817,2.816 6.698,4.564 10.963,4.564l0.053 0 7.81 0 -4.999 3.97 5.293 4.203z"/>
     <path class="fil2" d="M39.928 16.495l-7.111 0 5.055 -4.015 -5.237 -4.158 7.293 0 0.053 0c6.522,0 12.448,2.665 16.741,6.959 4.294,4.293 6.959,10.22 6.959,16.742 0,6.521 -2.665,12.447 -6.959,16.741 -4.293,4.293 -10.219,6.959 -16.741,6.959l-0.053 0 -2.757 0 0.054 3.213 -9.338 -7.416 9.089 -7.217 0.056 3.247 2.896 0 0.053 0c4.265,0 8.146,-1.748 10.963,-4.564 2.816,-2.817 4.564,-6.698 4.564,-10.964 0,-4.265 -1.748,-8.147 -4.564,-10.963 -2.817,-2.816 -6.698,-4.564 -10.963,-4.564l-0.053 0z"/>
    </g>
    <g>
     <path class="fil3" d="M21.697 31.445l0 1.42c0.156,0.352 0.05,2.567 1.859,5.052 0.504,0.693 1.004,1.23 1.648,1.778 2.684,2.286 5.416,2.175 5.766,2.313l1.16 0c0.135,-0.053 0.794,-0.092 1.022,-0.132 4.206,-0.725 7.373,-3.881 8.113,-8.085 0.042,-0.235 0.085,-0.92 0.138,-1.056l0 -1.159c-0.116,-0.296 0.018,-1.518 -0.955,-3.664 -0.361,-0.795 -1.231,-2.076 -1.894,-2.685 -0.514,-0.473 -0.58,-0.585 -1.242,-1.065 -2.505,-1.817 -4.695,-1.702 -5.052,-1.86l-1.421 0c-0.415,0.185 -3.407,0.039 -6.254,2.888 -2.849,2.851 -2.707,5.849 -2.888,6.255z"/>
     <g>
      <path class="fil4" d="M26.933 29.209c0.051,0.114 0.694,0.721 0.834,0.862l0.863 0.857 2.184 -2.174c0.243,-0.242 0.487,-0.506 0.736,-0.73 0.243,0.168 2.576,2.637 2.921,2.904 0.223,-0.177 1.675,-1.667 1.702,-1.725l-1.152 -1.142c-0.272,-0.273 -3.327,-3.379 -3.471,-3.453l-4.617 4.601z"/>
      <path class="fil4" d="M26.937 35.098l4.613 4.605c0.156,-0.083 3.642,-3.626 4.052,-4.035 0.148,-0.148 0.423,-0.457 0.572,-0.559 -0.049,-0.099 -1.559,-1.616 -1.703,-1.726 -0.218,0.179 -2.156,2.15 -2.565,2.558 -0.112,0.112 -0.238,0.264 -0.356,0.347 -0.374,-0.341 -1.059,-1.059 -1.457,-1.456 -0.207,-0.208 -1.333,-1.366 -1.466,-1.447l-1.69 1.713z"/>
      <path class="fil4" d="M24.007 32.155c0.083,0.128 1.65,1.669 1.713,1.701 0.215,-0.209 1.605,-1.576 1.673,-1.701 -0.113,-0.205 -1.396,-1.369 -1.676,-1.701 -0.066,0.029 -1.637,1.584 -1.71,1.701z"/>
      <path class="fil4" d="M35.712 32.155l1.672 1.699c0.139,-0.061 0.711,-0.681 0.867,-0.837 0.147,-0.147 0.77,-0.748 0.842,-0.862 -0.069,-0.108 -0.699,-0.718 -0.842,-0.861 -0.156,-0.156 -0.727,-0.775 -0.868,-0.84 -0.231,0.27 -0.566,0.574 -0.829,0.837 -0.163,0.162 -0.762,0.723 -0.842,0.864z"/>
      <polygon class="fil4" points="29.853,32.152 31.548,33.852 33.247,32.159 31.556,30.456 "/>
     </g>
    </g>
   </g>
  </g>
 </g>
</svg>
